HIERARCHY
ROOT hip
{
	OFFSET 0.000000 0.000000 0.000000 
	CHANNELS 6 Xposition Yposition Zposition Xrotation Zrotation Yrotation
	JOINT abdomen
	{
		OFFSET 0.000000 3.402643 0.000000 
		CHANNELS 3 Xrotation Zrotation Yrotation
		JOINT chest
		{
			OFFSET 0.000000 8.438565 -0.680529 
			CHANNELS 3 Xrotation Zrotation Yrotation
			JOINT neck
			{
				OFFSET 0.000000 10.207942 -0.272212 
				CHANNELS 3 Xrotation Zrotation Yrotation
				JOINT head
				{
					OFFSET 0.000000 3.130431 0.000000 
					CHANNELS 3 Xrotation Zrotation Yrotation
					End Site
					{
						OFFSET 0.000000 3.130435 0.000000 
					}
				}
			}
			JOINT lCollar
			{
				OFFSET 3.470700 6.669187 -0.816635 
				CHANNELS 3 Yrotation Zrotation Xrotation
				JOINT lShldr
				{
					OFFSET 3.198488 0.000000 0.000000 
					CHANNELS 3 Zrotation Yrotation Xrotation
					JOINT lForeArm
					{
						OFFSET 10.139888 0.000000 0.000000 
						CHANNELS 3 Yrotation Zrotation Xrotation
						JOINT lHand
						{
							OFFSET 8.370511 0.000000 0.000000 
							CHANNELS 3 Zrotation Yrotation Xrotation
							End Site
							{
								OFFSET 4.083176 0.000000 0.000000 
							}
						}
					}
				}
			}
			JOINT rCollar
			{
				OFFSET -3.470700 6.669187 -0.816635 
				CHANNELS 3 Yrotation Zrotation Xrotation
				JOINT rShldr
				{
					OFFSET -3.198488 0.000000 0.000000 
					CHANNELS 3 Zrotation Yrotation Xrotation
					JOINT rForeArm
					{
						OFFSET -10.139888 0.000000 0.000000 
						CHANNELS 3 Yrotation Zrotation Xrotation
						JOINT rHand
						{
							OFFSET -8.370511 0.000000 0.000000 
							CHANNELS 3 Zrotation Yrotation Xrotation
							End Site
							{
								OFFSET -4.083176 0.000000 0.000000 
							}
						}
					}
				}
			}
		}
	}
	JOINT lThigh
	{
		OFFSET 5.308129 -1.633274 1.361059 
		CHANNELS 3 Xrotation Zrotation Yrotation
		JOINT lShin
		{
			OFFSET -2.041588 -20.007561 0.000000 
			CHANNELS 3 Xrotation Zrotation Yrotation
			JOINT lFoot
			{
				OFFSET 0.000000 -19.190928 -1.224953 
				CHANNELS 3 Xrotation Yrotation Zrotation
				End Site
				{
					OFFSET 0.000000 -2.449906 4.627600 
				}
			}
		}
	}
	JOINT rThigh
	{
		OFFSET -5.308129 -1.633274 1.361059 
		CHANNELS 3 Xrotation Zrotation Yrotation
		JOINT rShin
		{
			OFFSET 2.041588 -20.007561 0.000000 
			CHANNELS 3 Xrotation Zrotation Yrotation
			JOINT rFoot
			{
				OFFSET 0.000000 -19.190928 -1.224953 
				CHANNELS 3 Xrotation Yrotation Zrotation
				End Site
				{
					OFFSET 0.000000 -2.449906 4.627600 
				}
			}
		}
	}
}
MOTION
Frames: 20
Frame Time: 0.016667
0.592780 49.326847 0.819635 14.377857 8.170085 3.315913 0.000000 0.000000 0.000000 13.193510 -2.573398 -6.071030 14.867525 -8.144464 -0.237545 -18.975550 -3.650966 6.125701 -12.765659 -16.723093 10.249409 -50.033146 -32.801460 69.149940 -22.417904 9.474216 5.268880 1.302644 3.278770 -13.826992 2.353235 5.476952 11.292136 21.870827 35.606632 62.046715 38.203892 -12.390100 10.337715 -52.044395 -54.972965 -5.262663 -21.551565 2.060582 4.927543 15.383513 -0.891074 -0.711330 -3.809645 -10.075771 -7.227025 -26.286001 -14.051577 7.612319 29.094673 -0.834723 1.267302 -16.693905 -6.495022 5.731806 
0.625218 49.312534 0.844545 14.365891 7.993556 3.442950 0.000000 0.000000 0.000000 13.018321 -2.583156 -6.061276 14.712012 -8.320243 -0.237561 -18.807465 -3.826916 5.960027 -12.804516 -16.684683 10.080711 -50.235180 -32.655235 69.144539 -22.588753 9.490683 5.282304 1.671351 3.390626 -14.517225 2.381546 5.462001 11.115347 22.103977 35.812798 62.727638 38.039318 -12.528387 10.427583 -51.956104 -54.720947 -4.591595 -21.578831 2.060005 4.560472 15.570299 -0.891428 -0.690790 -3.956493 -9.929951 -6.992306 -26.065199 -14.039772 7.463457 29.095804 -0.820216 1.251380 -17.055307 -6.447678 5.754748 
0.652256 49.301399 0.873037 14.182341 7.838065 3.382205 0.000000 0.000000 0.000000 13.010389 -2.583985 -5.885235 14.690349 -8.144469 -0.227878 -18.983864 -3.652150 5.949037 -12.804516 -16.684683 10.080711 -50.273792 -32.480011 69.136589 -22.768332 9.496454 5.293676 1.671351 3.390626 -14.517225 2.408856 5.447340 10.948277 22.273973 36.008411 63.054817 38.041813 -12.662975 10.367551 -51.716236 -54.650166 -4.072585 -21.402479 2.059873 4.551191 15.736266 -0.888570 -0.707911 -4.112141 -9.534821 -6.853370 -25.950945 -13.884518 7.400671 29.094673 -0.834722 1.267302 -17.091112 -6.402521 6.000194 
0.678524 49.294796 0.901902 14.182341 7.838065 3.382205 0.000000 0.000000 0.000000 13.012222 -2.584790 -5.709194 14.320604 -8.154296 -0.030386 -19.151955 -3.650899 6.135447 -12.679440 -16.608282 9.879825 -50.278233 -32.318581 68.955391 -22.768332 9.496454 5.293676 1.274012 3.648784 -13.952017 2.608033 5.474477 10.769766 22.423643 36.197037 63.203087 37.677364 -12.671287 10.322525 -51.149376 -54.796627 -4.214927 -21.405338 2.236194 4.365002 15.912036 -0.891628 -0.716451 -4.396201 -9.095068 -7.077243 -25.680378 -13.680528 7.713904 29.103777 -0.581002 0.987991 -17.079266 -6.412142 5.995974 
0.706865 49.293636 0.926390 14.182034 7.664227 3.164040 0.000000 0.000000 0.000000 12.839654 -2.586367 -5.347356 14.084092 -8.017443 0.334234 -19.328445 -3.476125 6.134239 -12.325920 -16.527174 9.921159 -50.291977 -32.319427 69.214531 -22.417904 9.474216 5.268880 0.705048 3.652599 -13.047345 2.950013 5.550527 10.786352 22.592735 36.215054 63.357750 37.148441 -12.696119 10.254968 -49.904945 -54.965763 -5.128088 -21.405338 2.236196 4.365002 16.097744 -0.891656 -0.725091 -4.498237 -9.205734 -7.155494 -25.710386 -13.680605 7.891328 28.927723 -0.580902 0.991597 -17.082159 -6.446245 5.964905 
0.736651 49.296097 0.940313 14.182034 7.664227 3.164040 0.000000 0.000000 0.000000 12.838807 -2.752267 -5.211249 13.886133 -8.036816 0.493043 -19.502989 -3.292767 5.947295 -12.156962 -16.669682 9.907799 -50.365742 -32.309738 69.745384 -21.707550 9.452589 5.209602 0.513762 3.614228 -12.884069 3.285740 5.447388 10.809920 22.627430 36.405006 63.712059 36.247894 -12.711087 10.123767 -48.208115 -55.429108 -7.107040 -21.374342 2.411849 4.351551 16.085323 -0.940043 -0.730495 -4.673057 -8.942263 -7.220141 -25.760365 -13.524841 7.504425 28.918293 -0.756524 1.095338 -17.044317 -6.534104 5.917123 
0.764894 49.296577 0.939505 14.354221 7.652994 3.360207 0.000000 0.000000 0.000000 12.838036 -2.927950 -5.075194 13.693972 -8.007459 0.541395 -19.679333 -3.292709 5.957043 -11.990507 -16.634417 9.923315 -50.101875 -32.433807 70.477776 -21.177303 9.422666 5.171607 0.358380 3.635572 -13.214499 3.285740 5.447388 10.809920 22.360588 36.567341 64.364647 35.170895 -12.741738 9.991515 -45.464844 -55.936935 -10.483788 -21.573309 2.225028 4.374586 16.098112 -0.891471 -0.715335 -4.665349 -9.240857 -6.976468 -25.901199 -13.679267 7.910597 28.919022 -0.742022 1.089101 -16.997643 -6.818189 6.170334 
0.790920 49.290073 0.924991 14.536712 7.651421 3.557675 0.000000 0.000000 0.000000 12.838036 -2.927950 -5.075194 13.350862 -8.154159 0.334215 -19.855888 -3.293633 5.800494 -12.041722 -16.766123 9.710088 -50.035263 -32.406376 71.285103 -20.638174 9.402487 5.133133 0.430917 3.401904 -14.131538 3.302603 5.269861 10.650430 21.956858 36.537235 64.894936 33.735226 -12.783982 9.755966 -42.175583 -56.313023 -14.580086 -21.952446 2.070214 4.414123 16.261419 -0.937533 -0.738448 -4.672117 -9.491286 -6.894434 -26.192543 -13.893601 7.942836 29.095804 -0.820217 1.251380 -16.926624 -7.247608 6.120972 
0.817093 49.278938 0.902722 14.717339 7.814981 3.806176 0.000000 0.000000 0.000000 12.662528 -2.928776 -4.889393 13.171690 -8.349226 0.552423 -20.031120 -3.468394 5.821136 -11.862554 -16.731808 9.737733 -49.750015 -32.521400 71.854698 -20.285969 9.381362 5.097169 0.500516 3.217386 -15.390315 3.485151 5.304042 10.649014 21.389229 36.489452 65.317131 32.496059 -12.947954 9.687407 -38.667027 -56.374439 -19.081804 -22.281015 2.069818 4.625171 16.261436 -0.930691 -0.747344 -4.574346 -9.526253 -6.909495 -26.514370 -14.069239 8.176090 29.262884 -0.820335 1.227636 -17.018517 -7.600267 6.318374 
0.843456 49.270218 0.880073 15.069040 7.793407 4.032670 0.000000 0.000000 0.000000 12.660353 -3.104542 -4.753392 12.993957 -8.544200 0.749910 -20.207100 -3.643078 5.851582 -11.686302 -16.695375 9.753348 -49.613766 -32.494770 72.131104 -19.936119 9.366148 5.069885 0.601731 2.629506 -16.345655 3.645768 5.344840 10.656554 20.663620 36.251686 65.538528 31.402157 -12.973718 9.362938 -35.474709 -56.443306 -23.377226 -22.653486 1.894005 4.493862 16.261419 -0.937533 -0.738448 -4.833132 -9.683115 -6.792316 -26.661772 -14.235556 8.389688 29.623346 -0.820265 1.258885 -17.333782 -7.830442 6.150896 
0.867216 49.268528 0.862822 15.256105 7.964539 4.448329 0.000000 0.000000 0.000000 12.835851 -3.094766 -4.763142 13.010801 -8.944322 0.859015 -20.206833 -3.817809 5.872336 -11.659266 -16.898739 9.881561 -49.569111 -32.501904 71.681747 -19.757853 9.355519 5.066128 0.804494 2.501121 -16.545881 3.623220 5.176642 10.839703 19.813318 35.672459 65.766968 30.501053 -12.988435 9.237449 -32.950764 -56.357025 -27.334557 -22.851917 1.726802 4.691666 16.269934 -0.947273 -0.759571 -4.602260 -10.234232 -6.633808 -26.927544 -14.207034 8.769532 29.641607 -0.566133 0.990984 -17.234943 -8.189376 5.964563 
0.890642 49.274120 0.852410 15.429111 7.952653 4.644452 0.000000 0.000000 0.000000 12.836112 -3.095542 -4.587091 12.999444 -9.119620 1.037193 -20.396107 -3.991101 6.088659 -11.481311 -16.871504 9.897170 -49.352100 -32.300461 71.000038 -20.107723 9.370870 5.093562 1.107997 2.395725 -15.503243 3.792439 5.220484 10.857578 19.091978 35.083775 65.811394 29.977766 -12.994683 9.336890 -31.141077 -56.413177 -30.536694 -23.024248 1.367135 4.915297 16.252851 -1.086743 -0.746813 -4.357150 -10.772681 -6.624126 -27.199421 -14.401826 8.624492 29.806280 -0.800628 1.094564 -17.165642 -8.545897 6.389215 
0.921873 49.283855 0.846044 15.444869 8.125331 4.864007 0.000000 0.000000 0.000000 13.012421 -3.095500 -4.596843 13.175299 -9.333294 1.374291 -20.399727 -4.164352 6.285533 -11.267343 -16.859081 10.082324 -49.271164 -32.315540 70.472595 -20.285969 9.381362 5.097169 1.370170 2.600028 -14.081509 3.779487 5.089764 11.226522 18.199461 34.123146 65.532478 29.789419 -12.850978 9.218700 -30.019955 -56.245506 -33.011757 -23.007517 1.210930 5.458582 16.084944 -0.940452 -0.740279 -4.185853 -11.436061 -6.483183 -27.153946 -14.568749 9.005025 29.813919 -0.825218 1.127779 -17.299814 -8.820177 6.425860 
0.964673 49.293255 0.837759 15.632798 8.287550 5.122272 0.000000 0.000000 0.000000 13.188233 -3.086472 -4.430543 13.353637 -9.371699 1.533219 -20.223713 -4.339077 6.286954 -11.213112 -16.902630 10.300624 -49.264904 -32.139027 70.124931 -20.826054 9.411921 5.136195 1.647488 2.650939 -12.848913 3.745547 5.096838 11.393543 17.615705 33.196308 65.195389 29.971441 -12.851057 9.422328 -29.636007 -56.431042 -34.767406 -22.983171 1.014825 6.006330 16.094366 -0.761805 -0.709034 -3.933893 -11.890594 -6.084288 -27.291361 -14.735004 9.229725 29.795769 -0.815267 1.100325 -17.205509 -9.131180 6.656469 
1.014220 49.299084 0.820986 15.626725 8.289783 4.945525 0.000000 0.000000 0.000000 13.374306 -3.086431 -4.440295 13.688156 -9.351413 1.701789 -20.217518 -4.337591 6.463703 -10.999306 -16.888308 10.486070 -49.202255 -32.314335 69.856934 -21.177303 9.422666 5.171607 1.781013 2.778926 -12.301528 3.889885 5.151730 11.577188 17.170847 32.282166 64.747887 30.155378 -12.705749 9.351418 -29.620716 -56.586548 -35.971455 -22.967516 1.025502 6.362198 15.927356 -0.773935 -0.712556 -3.976930 -12.277744 -6.085754 -27.316334 -14.743452 9.400075 29.795519 -0.825062 1.097898 -17.305519 -9.362829 6.517873 
1.070224 49.302219 0.794475 15.805351 8.289538 4.964851 0.000000 0.000000 0.000000 13.535797 -2.911967 -4.234457 13.842269 -9.038086 1.897735 -20.042322 -4.161709 6.609065 -10.989190 -16.719616 10.527400 -49.152538 -32.318142 69.507126 -21.707550 9.452589 5.209602 1.950212 2.768439 -12.129406 3.894591 5.330425 11.560738 16.870363 31.546045 64.385323 30.155378 -12.705749 9.351418 -29.416649 -56.905815 -37.173878 -23.113611 1.015720 6.527266 16.093451 -0.773931 -0.720109 -3.920432 -12.359651 -5.943744 -27.337948 -14.754028 9.755360 29.622219 -0.834853 1.274715 -17.128441 -9.920659 6.627484 
1.146184 49.307426 0.767581 15.792790 8.115012 4.913720 0.000000 0.000000 0.000000 13.720188 -2.910550 -4.595811 14.209289 -8.844584 1.520554 -19.862913 -3.822558 6.556995 -11.294453 -16.827791 10.656452 -49.035519 -32.317993 68.536537 -22.239208 9.477989 5.257322 1.908105 3.099911 -11.921525 3.494819 5.420238 11.715298 16.922312 31.023335 64.391701 30.166042 -12.850719 9.441802 -29.569651 -57.194698 -38.049740 -23.297758 1.015421 6.557836 16.094683 -0.754756 -0.708178 -4.131327 -12.313168 -5.941599 -27.356174 -14.753668 9.923065 29.623346 -0.820267 1.258884 -16.969580 -9.904235 6.824996 
1.256845 49.318649 0.755095 15.619848 8.117221 4.725908 0.000000 0.000000 0.000000 13.887866 -2.743824 -4.908397 14.374345 -8.356360 1.549564 -19.683006 -3.473633 6.505826 -11.424450 -16.731304 10.881117 -48.818199 -32.125011 67.846390 -22.588753 9.490683 5.282304 1.521265 3.378597 -11.704648 3.272346 5.588774 12.043330 17.099693 30.866301 64.368294 30.166042 -12.850719 9.441802 -30.317017 -57.656319 -38.338421 -23.330168 0.859911 6.378065 16.298111 -0.792828 -0.722033 -4.121272 -11.902410 -5.945515 -27.327383 -14.929483 10.307406 29.271397 -0.825055 1.255942 -16.785389 -9.890603 6.845714 
1.399172 49.334030 0.764154 15.444888 8.129296 4.518762 0.000000 0.000000 0.000000 14.071195 -2.742285 -5.269774 14.932349 -8.162400 1.162853 -19.505119 -3.299176 6.475440 -11.687016 -16.880066 11.187461 -48.713017 -32.283493 67.330704 -22.588753 9.490683 5.282304 1.293563 3.676025 -11.306145 3.047888 5.566430 12.388533 17.577066 30.722834 64.289970 30.329441 -12.698892 9.372449 -32.003605 -58.065323 -37.395069 -22.970520 0.838518 6.213225 16.270218 -0.761792 -0.717013 -4.257431 -11.354130 -5.748525 -26.997454 -15.115745 10.146556 28.919445 -0.829924 1.253030 -16.536036 -9.598622 7.191172 
1.555428 49.347618 0.788405 15.087687 7.978110 4.072715 0.000000 0.000000 0.000000 14.245259 -2.565874 -5.591687 15.289464 -7.792184 0.817626 -19.329138 -3.298077 6.641739 -11.972248 -16.833630 11.356176 -48.858932 -32.313583 67.046814 -22.239208 9.477989 5.257322 1.086540 3.781795 -10.934345 2.647062 5.836770 12.516893 18.198429 30.578739 63.936340 30.882635 -12.692371 9.621600 -34.864681 -58.385521 -35.035503 -22.629171 0.848532 6.180842 16.434847 -0.793827 -0.728405 -4.289770 -11.201536 -5.509023 -26.602476 -15.094768 10.130198 28.568357 -0.829971 1.231882 -16.529169 -9.025422 7.333960 
